<svg width="40" height="40" viewBox="0 0 40 40" fill="none" xmlns="http://www.w3.org/2000/svg">
	<path d="M19.9999 28.3333C20.4721 28.3333 20.8683 28.1733 21.1883 27.8533C21.5083 27.5333 21.6677 27.1378 21.6666 26.6667C21.6666 26.1944 21.5066 25.7983 21.1866 25.4783C20.8666 25.1583 20.471 24.9989 19.9999 25C19.5277 25 19.1316 25.16 18.8116 25.48C18.4916 25.8 18.3321 26.1955 18.3333 26.6667C18.3333 27.1389 18.4933 27.535 18.8133 27.855C19.1333 28.175 19.5288 28.3344 19.9999 28.3333ZM18.3333 21.6667H21.6666V11.6667H18.3333V21.6667ZM19.9999 36.6667C17.6944 36.6667 15.5277 36.2289 13.4999 35.3533C11.4721 34.4778 9.70825 33.2906 8.20825 31.7917C6.70825 30.2917 5.52103 28.5278 4.64659 26.5C3.77214 24.4722 3.33436 22.3056 3.33325 20C3.33325 17.6944 3.77103 15.5278 4.64659 13.5C5.52214 11.4722 6.70936 9.70833 8.20825 8.20833C9.70825 6.70833 11.4721 5.52111 13.4999 4.64666C15.5277 3.77222 17.6944 3.33444 19.9999 3.33333C22.3055 3.33333 24.4721 3.77111 26.4999 4.64666C28.5277 5.52222 30.2916 6.70944 31.7916 8.20833C33.2916 9.70833 34.4794 11.4722 35.3549 13.5C36.2305 15.5278 36.6677 17.6944 36.6666 20C36.6666 22.3056 36.2288 24.4722 35.3533 26.5C34.4777 28.5278 33.2905 30.2917 31.7916 31.7917C30.2916 33.2917 28.5277 34.4794 26.4999 35.355C24.4721 36.2305 22.3055 36.6678 19.9999 36.6667Z" fill="#AD172C"/>
</svg>
