<svg width="40" height="40" viewBox="0 0 40 40" fill="none" xmlns="http://www.w3.org/2000/svg">
	<path d="M18.3333 28.3333H21.6666V18.3333H18.3333V28.3333ZM19.9999 15C20.4721 15 20.8683 14.84 21.1883 14.52C21.5083 14.2 21.6677 13.8044 21.6666 13.3333C21.6666 12.8611 21.5066 12.465 21.1866 12.145C20.8666 11.825 20.471 11.6656 19.9999 11.6667C19.5277 11.6667 19.1316 11.8267 18.8116 12.1467C18.4916 12.4667 18.3321 12.8622 18.3333 13.3333C18.3333 13.8056 18.4933 14.2017 18.8133 14.5217C19.1333 14.8417 19.5288 15.0011 19.9999 15ZM19.9999 36.6667C17.6944 36.6667 15.5277 36.2289 13.4999 35.3533C11.4721 34.4778 9.70825 33.2906 8.20825 31.7917C6.70825 30.2917 5.52103 28.5278 4.64659 26.5C3.77214 24.4722 3.33436 22.3056 3.33325 20C3.33325 17.6944 3.77103 15.5278 4.64659 13.5C5.52214 11.4722 6.70936 9.70833 8.20825 8.20833C9.70825 6.70833 11.4721 5.52111 13.4999 4.64667C15.5277 3.77222 17.6944 3.33444 19.9999 3.33333C22.3055 3.33333 24.4721 3.77111 26.4999 4.64667C28.5277 5.52222 30.2916 6.70944 31.7916 8.20833C33.2916 9.70833 34.4794 11.4722 35.3549 13.5C36.2305 15.5278 36.6677 17.6944 36.6666 20C36.6666 22.3056 36.2288 24.4722 35.3533 26.5C34.4777 28.5278 33.2905 30.2917 31.7916 31.7917C30.2916 33.2917 28.5277 34.4794 26.4999 35.355C24.4721 36.2306 22.3055 36.6678 19.9999 36.6667Z" fill="#135686"/>
</svg>
