<svg width="48" height="48" viewBox="0 0 48 48" fill="none" xmlns="http://www.w3.org/2000/svg">
	<path d="M39.5 15.5H30.5C29.9696 15.5 29.4609 15.2893 29.0858 14.9142C28.7107 14.5391 28.5 14.0304 28.5 13.5V4.5M39.5 15.5V41.5C39.5 42.0304 39.2893 42.5391 38.9142 42.9142C38.5391 43.2893 38.0304 43.5 37.5 43.5H10.5C9.96957 43.5 9.46086 43.2893 9.08579 42.9142C8.71071 42.5391 8.5 42.0304 8.5 41.5V6.5C8.5 5.96957 8.71071 5.46086 9.08579 5.08579C9.46086 4.71071 9.96957 4.5 10.5 4.5H28.5M39.5 15.5L28.5 4.5" stroke="#444444" stroke-linecap="round" stroke-linejoin="round"/>
	<path d="M34.4311 24.535H29.9391V33.5M29.9391 29.017H32.8701M13.5701 33.483V24.517H16.5871C17.3851 24.5167 18.1506 24.8335 18.7151 25.3976C19.2796 25.9617 19.5968 26.727 19.5971 27.525C19.5974 28.323 19.2806 29.0885 18.7165 29.653C18.1524 30.2175 17.3871 30.5347 16.5891 30.535H13.5691M21.7541 33.5V24.5H23.2801C24.4736 24.5 25.6182 24.9741 26.4621 25.818C27.306 26.6619 27.7801 27.8065 27.7801 29C27.7801 30.1935 27.306 31.3381 26.4621 32.182C25.6182 33.0259 24.4736 33.5 23.2801 33.5H21.7541Z" stroke="#444444" stroke-linecap="round" stroke-linejoin="round"/>
</svg>
